# xmcd
# 
# Track frame offsets:
#     150
#     17863
#     33793
#     54958
#     75111
#     90487
#     108887
#     125400
#     143054
#     164744
#     182569
#     199374
#     213401
#     232470
#     252175
#     268016
# 
# Disc length: 3788
# 
# Revision: 1
# Processed by: cddbd v1.5.2PL0 Copyright (c) Steve Scherf et al.
# Submitted via: fre:ac v1.1beta1pre5
# 
DISCID=d70eca10
DTITLE=關淑怡 - 一雙情緣系列
DYEAR=2000
DGENRE=Pop
TTITLE0=一切也願意
TTITLE1=印象
TTITLE2=無盡的愛
TTITLE3=冬戀
TTITLE4=一首獨唱的歌
TTITLE5=地老天荒(R&B version)
TTITLE6=為何是我們
TTITLE7=把歌談心
TTITLE8=患難建真情
TTITLE9=愛恨纏綿
TTITLE10=難得有情人
TTITLE11=雙星情歌
TTITLE12=最深刻一次
TTITLE13=戀一世的愛
TTITLE14=真假情話
TTITLE15=可惜
EXTD=
EXTT0=
EXTT1=
EXTT2=
EXTT3=
EXTT4=
EXTT5=
EXTT6=
EXTT7=
EXTT8=
EXTT9=
EXTT10=
EXTT11=
EXTT12=
EXTT13=
EXTT14=
EXTT15=
PLAYORDER=
